<svg width="30" height="55" viewBox="0 0 30 55" fill="none" xmlns="http://www.w3.org/2000/svg">
<circle cx="15.0004" cy="45.0001" r="9.61538" fill="#7A4419"/>
<circle cx="14.9999" cy="45.0005" r="8.76923" fill="#7A4419" stroke="#D7D7D7" stroke-width="0.153846"/>
<circle cx="14.9998" cy="45.0001" r="4.94124" fill="#7A4419" stroke="white" stroke-width="0.801282"/>
<rect x="13.8455" y="28.4609" width="2.30769" height="16.9231" rx="1.15385" fill="#7A4419"/>
<circle cx="15" cy="15" r="15" fill="#7A4419"/>
<path fill-rule="evenodd" clip-rule="evenodd" d="M15.4335 23.0515C13.0463 23.0515 9.25601 18.8989 9.25601 14.4837C9.25601 11.0273 12.0213 8.22461 15.4335 8.22461C18.8457 8.22461 21.6118 11.0273 21.6118 14.4837C21.6118 18.8989 17.8215 23.0515 15.4335 23.0515Z" fill="white"/>
<path fill-rule="evenodd" clip-rule="evenodd" d="M17.5016 14.5753C17.5016 13.4376 16.5796 12.5156 15.4419 12.5156C14.3049 12.5156 13.383 13.4376 13.383 14.5753C13.383 15.7123 14.3049 16.6342 15.4419 16.6342C16.5796 16.6342 17.5016 15.7123 17.5016 14.5753Z" fill="#7A4419"/>
</svg>
