<svg width="16" height="11" viewBox="0 0 16 11" fill="none" xmlns="http://www.w3.org/2000/svg">
<path d="M14.6633 5.59912C12.6525 8.06992 10.5894 9.45538 8.52792 9.71198C8.25341 9.74605 8.05847 9.99619 8.09278 10.2709C8.12436 10.5243 8.34019 10.7101 8.58908 10.7101C8.60972 10.7101 8.63061 10.7088 8.65174 10.7061C11.0708 10.4052 13.4424 8.79099 15.7014 5.90818C15.7128 5.89351 15.716 5.87536 15.7257 5.85995C15.7399 5.83782 15.7499 5.81519 15.7603 5.79157C15.775 5.75701 15.7874 5.72369 15.7941 5.68714C15.7998 5.6568 15.8003 5.62721 15.8003 5.59613C15.8003 5.56555 15.7998 5.53646 15.7941 5.50662C15.7877 5.47007 15.7747 5.436 15.7598 5.40094C15.7494 5.37732 15.7397 5.35544 15.726 5.33356C15.716 5.31765 15.7133 5.29974 15.7014 5.28483C14.8214 4.16169 13.9146 3.22081 13.0065 2.48755C12.7917 2.31499 12.4764 2.34756 12.3021 2.56289C12.1286 2.77822 12.1624 3.09325 12.3775 3.2673C13.1421 3.88445 13.9096 4.67315 14.6633 5.59912Z" fill="#A7A7A7"/>
<path d="M0.180365 5.75188C0.190311 5.85905 0.233327 5.95776 0.307921 6.03956C0.840274 6.98019 2.90205 9.49675 5.67919 10.4692C6.14418 10.632 6.61079 10.7266 6.61079 10.7266C6.61079 10.7266 6.67675 10.7141 6.66992 10.7266L11.6699 1.60938L10.8687 1.17511C8.34817 0.077331 5.7411 0.434566 3.30188 2.22482C1.40619 3.616 0.293251 5.36648 0.246754 5.44032C0.236808 5.45574 0.236062 5.47339 0.228105 5.48956C0.215922 5.51368 0.207965 5.53804 0.199759 5.5639C0.188819 5.60045 0.180116 5.63601 0.17763 5.67331C0.176635 5.68698 0.169922 5.69842 0.169922 5.71234C0.169922 5.7213 0.17763 5.7397 0.180365 5.75188ZM8.07341 2.0908C8.77633 2.0908 10.4447 2.42237 10.9907 2.84781L9.39811 5.75188L7.69441 8.85847C6.49444 8.40842 4.94767 6.53089 4.94767 5.21654C4.94767 3.49292 6.34979 2.0908 8.07341 2.0908ZM5.21894 2.24248C4.4362 2.99414 3.94587 4.04815 3.94587 5.21654C3.94587 6.89963 5.49221 9.36918 7 10L6.17798 9.57458C3.6373 8.76448 1.82864 6.48191 1.2764 5.70936C1.75878 5.03677 3.18278 3.23632 5.21894 2.24248Z" fill="#A7A7A7"/>
<path d="M5 5.5C5 7.15685 6.34315 8.5 8 8.5C9.65685 8.5 11 7.15685 11 5.5C11 3.84315 9.65685 2.5 8 2.5C6.34315 2.5 5 3.84315 5 5.5Z" fill="white" stroke="#A7A7A7"/>
</svg>
