<svg width="16" height="12" viewBox="0 0 16 12" fill="none" xmlns="http://www.w3.org/2000/svg">
  <path
    d="M14.6633 5.60107C12.6525 8.07187 10.5894 9.45733 8.52792 9.71394C8.25341 9.748 8.05847 9.99814 8.09278 10.2729C8.12436 10.5263 8.34019 10.712 8.58908 10.712C8.60972 10.712 8.63061 10.7108 8.65174 10.708C11.0708 10.4072 13.4424 8.79295 15.7014 5.91014C15.7128 5.89547 15.716 5.87732 15.7257 5.8619C15.7399 5.83977 15.7499 5.81714 15.7603 5.79352C15.775 5.75896 15.7874 5.72564 15.7941 5.68909C15.7998 5.65875 15.8003 5.62917 15.8003 5.59808C15.8003 5.5675 15.7998 5.53841 15.7941 5.50857C15.7877 5.47202 15.7747 5.43796 15.7598 5.4029C15.7494 5.37928 15.7397 5.35739 15.726 5.33551C15.716 5.3196 15.7133 5.3017 15.7014 5.28678C14.8214 4.16364 13.9146 3.22276 13.0065 2.4895C12.7917 2.31694 12.4764 2.34951 12.3021 2.56484C12.1286 2.78017 12.1624 3.09521 12.3775 3.26926C13.1421 3.8864 13.9096 4.67511 14.6633 5.60107Z"
    fill="#A7A7A7" />
  <path
    d="M0.0104432 5.64311C0.020389 5.75028 0.0634049 5.84899 0.137999 5.9308C0.670352 6.87143 2.73213 9.38798 5.50927 10.3604L5.22283 10.8732C5.08781 11.1146 5.17434 11.4197 5.41603 11.5544C5.49335 11.5977 5.5769 11.6181 5.6597 11.6181C5.83524 11.6181 6.00582 11.5256 6.09757 11.3612L12.0251 0.745517C12.1601 0.504081 12.0735 0.198992 11.8319 0.0642251C11.5904 -0.0717847 11.2848 0.0154904 11.1503 0.257424L10.6988 1.06652C8.17824 -0.0312553 5.57118 0.325802 3.13196 2.11606C1.23627 3.50724 0.123329 5.25771 0.0768319 5.33156C0.066886 5.34698 0.0661401 5.36463 0.0581834 5.38079C0.0459997 5.40491 0.038043 5.42928 0.0298376 5.45514C0.0188972 5.49169 0.0101945 5.52725 0.00770805 5.56454C0.00671346 5.57822 0 5.58966 0 5.60358C0 5.61253 0.00770805 5.63093 0.0104432 5.64311ZM7.90349 1.98204C8.60641 1.98204 9.27328 2.21527 9.81931 2.6407L6.80895 8.03162C5.60898 7.58156 4.77775 6.42213 4.77775 5.10778C4.77775 3.38416 6.17987 1.98204 7.90349 1.98204ZM5.04902 2.13371C4.26628 2.88537 3.77595 3.93939 3.77595 5.10778C3.77595 6.79087 4.80759 8.28474 6.31538 8.91556L6.00805 9.46581C3.46738 8.65572 1.65872 6.37314 1.10648 5.6006C1.58885 4.92801 3.01285 3.12755 5.04902 2.13371Z"
    fill="#A7A7A7" />
</svg>