<svg xmlns="http://www.w3.org/2000/svg" fill="none" viewBox="-0.5 -0.5 16 16" stroke-linecap="round"
  stroke-linejoin="round" stroke="currentColor" id="Map--Streamline-Mynaui" height="16" width="16">
  <desc>Map Streamline Icon: https://streamlinehq.com</desc>
  <path
    d="M0.7153750000000001 4.9315C0.7153750000000001 3.7803750000000003 0.7153750000000001 3.2051875 1.011625 2.86975C1.1164375 2.749875 1.2438125 2.6548749999999997 1.3863125 2.5893125C2.4537500000000003 2.0970625000000003 3.852875 3.3929375 4.982125 3.3529375C5.1306875 3.3476875 5.2791875 3.3265624999999996 5.424687500000001 3.2911249999999996C7.0710625 2.8878125 8.1023125 0.9693125 9.7954375 0.735625C10.7656875 0.5999375 11.830875 1.186375 12.738499999999998 1.5C13.484750000000002 1.7578125 13.857937499999998 1.8867500000000001 14.07125 2.1935625C14.284625 2.500375 14.284625 2.9089375 14.284625 3.723125V10.072000000000001C14.284625 11.222375 14.284625 11.798312500000002 13.988375 12.133750000000001C13.8844375 12.2521875 13.75675 12.3474375 13.613687500000001 12.4134375C12.54625 12.9056875 11.147124999999999 11.610562499999999 10.017875 11.6505625C9.868625 11.655750000000001 9.720375 11.6761875 9.575312499999999 11.711625000000002C7.9289375 12.1149375 6.8976875 14.033437499999998 5.2045625 14.267875C4.238875 14.4020625 1.550625 13.7025 0.92875 12.8091875C0.7153750000000001 12.502374999999999 0.7153750000000001 12.095312499999999 0.7153750000000001 11.279625ZM5.238437500000001 3.3846249999999998V14.1306875M9.7615625 0.8516875V11.59775"
    stroke-width="1"></path>
</svg>